<svg xmlns="http://www.w3.org/2000/svg" viewBox="0 0 627.74 433.17"><defs><style>.cls-1{fill:#0065ac;}.cls-2{fill:#fff;}.cls-3{fill:#231815;}.cls-4{fill:none;}</style></defs><title>dci_logo</title><path class="cls-1" d="M419.17,310.19c68.64.33,131.28-56,131.28-124.45,0-74.89-62.64-126.65-131.28-126.63H360.1c-69.45,0-126.62,51.75-126.62,126.63,0,68.5,57.17,124.78,126.62,124.45Z" transform="translate(-79.42 -59.11)"/><path class="cls-2" d="M386.45,252.42v-136a72.79,72.79,0,0,1,0,136m-98.9-68a73,73,0,0,1,46.75-68v136a72.92,72.92,0,0,1-46.75-68M360.38,69.49A114.93,114.93,0,1,0,475.31,184.43,114.95,114.95,0,0,0,360.38,69.49" transform="translate(-79.42 -59.11)"/><path class="cls-3" d="M105.09,395.87c0,10.22,7.31,11.41,13.81,11.41,28.68,0,38.09-21.63,38.09-41.41,0-24.82-15.93-42.74-41.54-42.74-5.45,0-8,.39-10.36.53Zm-13-62.26c0-11.94-6.23-11.16-12.2-11.28v-3.45c5.17.25,10.48.25,15.66.25,5.58,0,13.14-.25,23-.25,34.37,0,53.09,22.95,53.09,46.46,0,13.14-7.7,46.19-54.69,46.19-6.76,0-13-.26-19.25-.26-6,0-11.81.13-17.78.26v-3.45c8-.8,11.82-1.06,12.2-10.09Z" transform="translate(-79.42 -59.11)"/><path class="cls-3" d="M190.46,330.43a6.51,6.51,0,1,1,0-13,6.49,6.49,0,0,1,6.5,6.38,6.63,6.63,0,0,1-6.5,6.64m-14.21,77.65h2.52c3.71,0,6.37,0,6.37-4.39v-36c0-5.84-2-6.65-6.9-9.29v-2.13c6.23-1.86,13.67-4.37,14.2-4.77a4.68,4.68,0,0,1,2.39-.67c.66,0,.93.79.93,1.86v51c0,4.39,2.92,4.39,6.64,4.39h2.25v3.45c-4.51,0-9.16-.26-13.93-.26s-9.56.13-14.47.26Z" transform="translate(-79.42 -59.11)"/><path class="cls-3" d="M217.27,368.52c0-4.91-1.47-6.23-7.7-8.75v-2.53a177.78,177.78,0,0,0,17.52-6.37c.4,0,.79.27.79,1.32v8.63c7.57-5.43,14.08-9.95,23-9.95,11.27,0,15.26,8.23,15.26,18.58v34.24c0,4.39,2.92,4.39,6.63,4.39h2.4v3.45c-4.66,0-9.3-.26-14.07-.26s-9.57.13-14.35.26v-3.45h2.39c3.73,0,6.37,0,6.37-4.39V369.32c0-7.57-4.63-11.28-12.2-11.28-4.25,0-11,3.44-15.41,6.37v39.28c0,4.39,2.93,4.39,6.65,4.39h2.38v3.45c-4.64,0-9.29-.26-14.07-.26s-9.56.13-14.34.26v-3.45h2.4c3.71,0,6.37,0,6.37-4.39Z" transform="translate(-79.42 -59.11)"/><path class="cls-3" d="M308.74,370.65c3.31,0,3.7-1.73,3.7-3.32,0-6.77-4.11-12.21-11.55-12.21-8.09,0-13.67,6-15.26,15.53Zm-23.5,4.25c-.28,1.2-.28,3.18,0,7.7.78,12.61,8.9,23,19.5,23,7.31,0,13-4,17.93-8.89l1.85,1.85c-6.11,8.1-13.67,15-24.55,15-21.11,0-25.36-20.45-25.36-28.94,0-26,17.52-33.73,26.81-33.73,10.76,0,22.32,6.77,22.44,20.84a16,16,0,0,1-.12,2.4l-1.21.8Z" transform="translate(-79.42 -59.11)"/><path class="cls-3" d="M326.92,408.08h3.58c3.71,0,6.36,0,6.36-4.39V366.4c0-4.11-4.91-4.91-6.9-6v-2c9.69-4.12,15-7.58,16.21-7.58.78,0,1.18.4,1.18,1.74v11.94h.28c3.31-5.17,8.89-13.68,17-13.68,3.32,0,7.56,2.26,7.56,7,0,3.59-2.52,6.78-6.23,6.78-4.13,0-4.13-3.19-8.77-3.19-2.26,0-9.69,3.05-9.69,11v31.18c0,4.39,2.65,4.39,6.37,4.39h7.42v3.45c-7.3-.13-12.85-.26-18.57-.26-5.44,0-11,.13-15.79.26Z" transform="translate(-79.42 -59.11)"/><path class="cls-3" d="M378,393.08c1.73,8.76,7,16.19,16.73,16.19,7.82,0,10.74-4.77,10.74-9.42,0-15.66-28.93-10.62-28.93-32,0-7.43,6-17,20.58-17a35,35,0,0,1,15.12,3.85l.93,13.53h-3.05c-1.33-8.35-6-13.13-14.47-13.13-5.31,0-10.35,3.05-10.35,8.76,0,15.54,30.79,10.75,30.79,31.59,0,8.75-7,18.06-22.83,18.06A34.86,34.86,0,0,1,377.09,409l-1.47-15.26Z" transform="translate(-79.42 -59.11)"/><path class="cls-3" d="M536,342.9h-3.31c-2.53-15.52-13.55-21.77-28.41-21.77-15.28,0-37.45,10.22-37.45,42.08,0,26.82,19.13,46.06,39.57,46.06,13.13,0,24-9,26.68-23l3.05.79-3.05,19.38c-5.57,3.46-20.57,7-29.34,7-31.05,0-50.7-20-50.7-49.92,0-27.21,24.29-46.73,50.3-46.73,10.75,0,21.11,3.46,31.33,7.05Z" transform="translate(-79.42 -59.11)"/><path class="cls-3" d="M540.76,408.08h2.51c3.73,0,6.39,0,6.39-4.39V329.77c0-8.64-2-8.9-7-10.36v-2.12a84.46,84.46,0,0,0,13.67-5.71,13.7,13.7,0,0,1,2.91-1.47c.81,0,1.08.8,1.08,1.87v91.71c0,4.39,2.92,4.39,6.64,4.39h2.24v3.45c-4.5,0-9.15-.26-13.93-.26s-9.55.13-14.47.26Z" transform="translate(-79.42 -59.11)"/><path class="cls-3" d="M626,404.22c0,2.4,1.45,2.53,3.71,2.53,1.59,0,3.58-.13,5.31-.13v2.8c-5.71.52-16.59,3.31-19.12,4.11l-.66-.4V402.38c-8,6.5-14.07,11.15-23.51,11.15-7.16,0-14.59-4.65-14.59-15.79v-34c0-3.45-.53-6.77-8-7.43v-2.52c4.78-.13,15.38-.93,17.11-.93,1.47,0,1.47.93,1.47,3.85V391c0,4,0,15.4,11.54,15.4,4.51,0,10.49-3.45,16.06-8.08V362.55c0-2.65-6.37-4.11-11.14-5.44v-2.39c11.93-.8,19.38-1.86,20.7-1.86,1.07,0,1.07.93,1.07,2.4Z" transform="translate(-79.42 -59.11)"/><path class="cls-3" d="M652.4,396.53c0,5,4.78,13.54,13.67,13.54,14.21,0,20.17-13.94,20.17-25.76C686.24,370,675.37,358,665,358c-4.93,0-9,3.19-12.62,6.24Zm0-36.11c5.31-4.51,12.48-9.56,19.78-9.56,15.4,0,24.69,13.42,24.69,27.89,0,17.38-12.75,34.78-31.74,34.78-9.81,0-15-3.19-18.44-4.65l-4,3.05-2.78-1.46a156.6,156.6,0,0,0,1.85-23.63V329.77c0-8.64-2-8.9-7-10.36v-2.12a85.55,85.55,0,0,0,13.68-5.71,14,14,0,0,1,2.92-1.47c.8,0,1.06.81,1.06,1.87Z" transform="translate(-79.42 -59.11)"/><path class="cls-3" d="M79.73,488.71h1c2.6,0,5.34-.36,5.34-4.11V446.76c0-3.77-2.74-4.12-5.34-4.12h-1v-2.17c2.82,0,7.15.28,10.7.28s7.94-.28,11.33-.28v2.17h-1c-2.58,0-5.34.35-5.34,4.12V484.6c0,3.75,2.76,4.11,5.34,4.11h1v2.18c-3.47,0-7.81-.29-11.41-.29s-7.8.29-10.62.29Z" transform="translate(-79.42 -59.11)"/><path class="cls-3" d="M101.45,490.58V489h-.7c-2.58,0-5.65-.44-5.66-4.43V446.76c0-4,3.08-4.44,5.66-4.44h.7v-1.54c-3.34,0-7.52.29-11,.29s-7.58-.27-10.38-.29v1.54h.69c2.57,0,5.65.45,5.65,4.44V484.6c0,4-3.08,4.43-5.65,4.43h-.69v1.55c2.8,0,6.88-.3,10.3-.3s7.69.28,11.1.3m.31.61c-3.49,0-7.81-.29-11.41-.29s-7.78.29-10.62.29h-.31V488.4h1.32c2.62-.06,5-.27,5-3.8V446.76c0-3.54-2.41-3.77-5-3.81H79.42v-2.8h.31c2.84,0,7.17.29,10.7.29s7.92-.29,11.33-.29h.32V443h-1.33c-2.62,0-5,.27-5,3.81V484.6c0,3.53,2.41,3.74,5,3.8h1.33v2.79Z" transform="translate(-79.42 -59.11)"/><path class="cls-3" d="M151.38,476.65l.15-.14V449.43c0-5.93-4.13-6.79-6.29-6.79h-1.59v-2.17c3.4,0,6.72.28,10.11.28,3,0,5.93-.28,8.89-.28v2.17h-1.08c-3,0-6.44.57-6.44,9.17v32.87a48.62,48.62,0,0,0,.43,7.29h-2.74l-37.19-41.46v29.76c0,6.28,1.21,8.44,6.78,8.44h1.23v2.18c-3.11,0-6.21-.29-9.32-.29s-6.57.29-9.82.29v-2.18h1c5,0,6.5-3.38,6.5-9.16V449.13a6.48,6.48,0,0,0-6.56-6.49h-1v-2.17c2.74,0,5.56.28,8.3.28,2.17,0,4.27-.28,6.43-.28Z" transform="translate(-79.42 -59.11)"/><path class="cls-3" d="M151.21,476.5v0l-.05-.05Zm.17.15.23-.21Zm1.44,15h2.39a47.68,47.68,0,0,1-.38-7V451.81c0-8.67,3.63-9.49,6.74-9.49h.76v-1.54c-2.84,0-5.7.29-8.57.29-3.3,0-6.52-.27-9.79-.29v1.54h1.27c2.22,0,6.6,1,6.6,7.11l-.1,27.3-.14.15-.25.22-32.12-36.32c-2.14,0-4.23.29-6.44.29-2.64,0-5.35-.27-8-.29v1.54h.64a6.8,6.8,0,0,1,6.88,6.81v30.42c0,5.78-1.61,9.47-6.81,9.49l-.7,0v1.56c3.14,0,6.35-.29,9.51-.29s6,.26,9,.29V489h-.91c-5.68,0-7.09-2.49-7.1-8.77V449.69Zm2.74.63-3-.11-36.65-40.85v28.95c.09,6.28,1,8.06,6.48,8.13H124v2.79h-.32c-3.13,0-6.24-.29-9.32-.29s-6.55.29-9.83.29h-.31V488.4h1.33c4.78,0,6.14-3.09,6.19-8.85V449.13a6.17,6.17,0,0,0-6.26-6.18h-1.26v-2.79h.31c2.77,0,5.59.28,8.3.28,2.16,0,4.24-.28,6.68-.17L151.21,476V449.43c0-5.74-3.87-6.44-6-6.48h-1.91v-2.79h.32c3.41,0,6.74.28,10.11.28,2.94,0,5.9-.28,8.89-.28H163V443h-1.39c-3,.08-6,.34-6.13,8.86v32.87a47.49,47.49,0,0,0,.43,7.23l.07.37Z" transform="translate(-79.42 -59.11)"/><path class="cls-3" d="M173.47,444.08c-5.43,0-5.63,1.3-6.72,6.57h-2.17c.29-2,.65-4,.88-6.14a44.45,44.45,0,0,0,.43-6.13h1.73c.58,2.17,2.38,2.09,4.34,2.09h37.26c2,0,3.76-.07,3.91-2.24l1.72.29c-.28,2-.57,3.9-.79,5.85s-.14,3.9-.14,5.85l-2.16.8c-.15-2.67-.52-6.94-5.35-6.94H194.57v38.43c0,5.57,2.53,6.2,6,6.2h1.38v2.18c-2.82,0-7.88-.29-11.77-.29-4.33,0-9.4.29-12.22.29v-2.18h1.38c4,0,6-.36,6-6V444.08Z" transform="translate(-79.42 -59.11)"/><path class="cls-3" d="M201.94,491.19c-2.84,0-7.9-.28-11.78-.28-4.33,0-9.38.28-12.22.28h-.3V488.4h1.68c4-.09,5.58-.14,5.67-5.74V444.39H173.47v-.63h12.15v38.9c0,5.79-2.33,6.37-6.3,6.38h-1.06v1.52c2.85,0,7.71-.27,11.9-.27,3.77,0,8.59.26,11.45.27V489h-1.06c-3.49,0-6.3-.86-6.3-6.53V443.76h12.16c4.85,0,5.48,4.13,5.64,6.82l1.56-.58c0-1.88,0-3.77.14-5.67s.48-3.7.75-5.55l-1.1-.18c-.34,2.09-2.37,2.2-4.19,2.18H171.59c-1.7,0-3.56-.08-4.2-2.09h-1.2a42.1,42.1,0,0,1-.43,5.86c-.21,2-.53,3.89-.8,5.8h1.54c1-5,1.58-6.67,7-6.59v.63c-5.35.1-5.23,1-6.41,6.34L167,451h-2.78l0-.37c.3-2,.66-4.05.88-6.14a40.86,40.86,0,0,0,.43-6.08v-.32h2.3l0,.23c.49,1.82,1.83,1.83,3.67,1.86h37.62c2,0,3.48-.06,3.6-1.95l0-.34.33.07,2,.32-.05.32c-.29,1.93-.57,3.88-.79,5.82s-.14,3.87-.14,5.83v.22l-.2.08-2.56.93,0-.42c-.19-2.71-.48-6.64-5-6.64H194.88v38.12c.07,5.44,2.23,5.82,5.67,5.89h1.69v2.79Z" transform="translate(-79.42 -59.11)"/><path class="cls-3" d="M217.16,488.71h1c2.6,0,5.35-.36,5.35-4.11V446.76c0-3.77-2.75-4.12-5.35-4.12h-1v-2.17c4.39,0,11.92.28,18,.28s13.57-.28,18.48-.28c-.12,3.1-.05,7.88.16,11l-2.17.58c-.35-4.69-1.22-8.45-8.81-8.45h-10v18.92h8.59c4.33,0,5.27-2.45,5.7-6.35h2.17c-.15,2.82-.22,5.63-.22,8.45s.07,5.49.22,8.23l-2.17.43c-.43-4.33-.64-7.14-5.64-7.14h-8.65V483c0,4.7,4.18,4.7,8.8,4.7,8.67,0,12.5-.58,14.67-8.81l2,.49c-.94,3.84-1.8,7.66-2.44,11.5-4.63,0-12.94-.29-19.43-.29s-15.1.29-19.22.29Z" transform="translate(-79.42 -59.11)"/><path class="cls-3" d="M255.54,490.56c.62-3.64,1.45-7.3,2.34-10.93l-1.43-.36c-2.16,8.09-6.35,8.81-14.88,8.75-4.55,0-9.1,0-9.12-5V465.87h9c5.05-.05,5.56,3,5.92,7.1l1.56-.33c-.14-2.65-.21-5.32-.21-8s.07-5.43.21-8.15h-1.56c-.41,3.77-1.59,6.41-6,6.36h-8.91V443.33H242.8c7.52-.06,8.76,3.83,9.08,8.36l1.56-.41c-.12-2-.2-4.66-.2-7.07,0-1.24,0-2.41.06-3.43-4.91,0-12.22.29-18.16.29s-13.24-.27-17.67-.29v1.54h.7c2.58,0,5.65.45,5.66,4.44V484.6c0,4-3.08,4.42-5.66,4.44h-.7v1.52c4.21,0,12.56-.27,18.9-.27s14.51.27,19.17.27m.26.63c-4.64,0-12.94-.29-19.43-.29s-15.09.29-19.21.29h-.31V488.4h1.32c2.62,0,5-.27,5-3.8V446.76c0-3.53-2.41-3.76-5-3.81h-1.32v-2.79h.31c4.41,0,11.92.28,18,.28s13.57-.28,18.48-.28H254v.32c-.06,1.09-.08,2.37-.08,3.73,0,2.5.08,5.23.22,7.28v.27l-.24.07-2.54.66,0-.37c-.42-4.69-1-8.09-8.49-8.16h-9.73v18.28h8.29c4.15,0,4.9-2.16,5.39-6.05l0-.29h2.78v.33c-.14,2.81-.23,5.62-.23,8.44s.09,5.47.23,8.22v.25l-.26.06-2.52.5,0-.33c-.5-4.41-.53-6.83-5.33-6.88h-8.35V483c0,4.38,3.8,4.36,8.5,4.38,8.7-.05,12.19-.47,14.36-8.58l.08-.29.29.05,2.32.6-.06.3c-.95,3.82-1.8,7.65-2.45,11.47l-.06.25Z" transform="translate(-79.42 -59.11)"/><path class="cls-3" d="M277.25,464.87h3.53c7.23,0,11.12-2.74,11.12-11.26,0-6.42-4.11-10.54-10.55-10.54a35.52,35.52,0,0,0-4.1.29ZM268,448.12c0-5.27-2.89-5.48-5.13-5.48h-1.3v-2.17c2.31,0,6.79.28,11.2.28s7.79-.28,11.62-.28c9.1,0,17.2,2.45,17.2,12.72,0,6.49-4.34,10.46-10,12.71l12.34,18.47c2,3.06,3.47,3.92,7,4.34v2.18c-2.38,0-4.7-.29-7.07-.29s-4.56.29-6.79.29a200.55,200.55,0,0,1-15-23.42h-4.76v15.47c0,5.57,2.6,5.77,5.91,5.77h1.31v2.18c-4.13,0-8.3-.29-12.43-.29-3.47,0-6.86.29-10.47.29v-2.18h1.3c2.68,0,5.13-1.21,5.13-3.89Z" transform="translate(-79.42 -59.11)"/><path class="cls-3" d="M280.78,464.56c7.15-.06,10.75-2.54,10.82-10.94,0-6.3-4-10.22-10.25-10.24a28.83,28.83,0,0,0-3.79.26v20.92Zm-3.53.62h-.32V443.07l.28,0a37,37,0,0,1,4.14-.27c6.58,0,10.86,4.27,10.87,10.85,0,8.62-4.16,11.56-11.44,11.56Zm0,2h4.93l.09.15A223.21,223.21,0,0,0,297,490.58c2.2,0,4.52-.3,6.77-.3s4.53.25,6.78.29V489c-3.39-.42-5-1.43-6.95-4.43l-12.57-18.8.36-.14c5.65-2.23,9.83-6.09,9.84-12.44,0-10-7.8-12.34-16.88-12.39-3.8,0-7.27.29-11.62.29s-8.53-.27-10.9-.29v1.54h1c2.24,0,5.44.37,5.44,5.8v36.7c0,2.9-2.72,4.21-5.44,4.22h-1v1.53c3.48,0,6.78-.29,10.17-.29,4,0,8.11.28,12.11.29V489h-1c-3.3,0-6.23-.41-6.23-6.11V467.17Zm33.65,24c-2.42,0-4.71-.29-7.09-.29-2.2,0-4.51.29-7,.17a201,201,0,0,1-14.95-23.27h-4.27v15.13c.07,5.43,2.26,5.39,5.6,5.47h1.62v2.79h-.32c-4.13,0-8.33-.29-12.42-.29-3.45,0-6.84.29-10.47.29h-.31V488.4h1.61c2.61,0,4.8-1.15,4.81-3.58v-36.7c-.06-5.12-2.57-5.1-4.81-5.17h-1.61v-2.8h.31c2.34,0,6.8.29,11.2.29s7.78-.29,11.62-.29c9.11,0,17.49,2.53,17.51,13,0,6.52-4.3,10.59-9.88,12.87l12.13,18.16c2,3,3.28,3.75,6.8,4.2l.26,0v2.75Z" transform="translate(-79.42 -59.11)"/><path class="cls-3" d="M359.94,476.65l.13-.14V449.43c0-5.93-4.11-6.79-6.27-6.79h-1.59v-2.17c3.39,0,6.71.28,10.11.28,3,0,5.91-.28,8.9-.28v2.17h-1.09c-3,0-6.43.57-6.43,9.17v32.87a47.33,47.33,0,0,0,.43,7.29h-2.75l-37.19-41.46v29.76c0,6.28,1.22,8.44,6.79,8.44h1.22v2.18c-3.1,0-6.21-.29-9.31-.29-3.26,0-6.58.29-9.83.29v-2.18h1c5,0,6.51-3.38,6.51-9.16V449.13a6.48,6.48,0,0,0-6.57-6.49h-.95v-2.17c2.74,0,5.57.28,8.31.28,2.15,0,4.26-.28,6.42-.28Z" transform="translate(-79.42 -59.11)"/><path class="cls-3" d="M359.76,476.51v0l-.05-.06Zm.18.14.22-.21Zm1.44,15h2.38a49,49,0,0,1-.38-7V451.81c0-8.67,3.65-9.47,6.75-9.49h.75v-1.54c-2.83,0-5.69.29-8.56.29-3.31,0-6.54-.27-9.81-.29v1.54h1.29c2.22,0,6.6,1,6.6,7.11l-.11,27.3-.13.15-.23.23-32.14-36.33c-2.14,0-4.23.29-6.42.29-2.68,0-5.37-.27-8-.29v1.54H314a6.8,6.8,0,0,1,6.87,6.81v30.41c0,5.79-1.62,9.48-6.8,9.5h-.71v1.53c3.13,0,6.34-.27,9.52-.27s6,.26,9,.27V489H331c-5.69,0-7.11-2.49-7.12-8.77V449.71Zm2.75.63-3-.1-36.66-40.86v28.95c.09,6.28,1,8.06,6.49,8.13h1.53v2.79h-.31c-3.13,0-6.23-.29-9.32-.29s-6.57.29-9.81.29h-.33V488.4h1.33c4.76,0,6.13-3.09,6.18-8.86V449.13A6.16,6.16,0,0,0,314,443h-1.26v-2.8h.33c2.75,0,5.57.29,8.3.29,2.12,0,4.22-.29,6.64-.19L359.76,476V449.43c0-5.74-3.86-6.45-6-6.48h-1.91v-2.8h.31c3.42,0,6.74.29,10.12.29,2.94,0,5.91-.29,8.88-.29h.32V443h-1.39c-3,.07-6.05.34-6.13,8.86v32.87a46.52,46.52,0,0,0,.43,7.24l0,.36Z" transform="translate(-79.42 -59.11)"/><path class="cls-3" d="M393.37,448.56h-.15L386.51,469H400Zm-10.54,32c-.73,2.45-1.61,4.34-1.61,5.63,0,2.16,3,2.52,5.43,2.52h.8v2.18c-2.9-.15-5.85-.29-8.75-.29-2.6,0-5.19.14-7.8.29v-2.18h.44a6.53,6.53,0,0,0,6.27-4.69l11.57-33.14a62.31,62.31,0,0,0,2.68-9,37.19,37.19,0,0,0,6.56-3.1,1.61,1.61,0,0,1,.58-.15.5.5,0,0,1,.51.22c.21.58.42,1.23.66,1.8l13.28,37.78c.87,2.53,1.73,5.2,2.66,7.37s2.4,2.88,4.78,2.88h.43v2.18c-3.25-.15-6.51-.29-10-.29s-7.16.14-10.84.29v-2.18h.79c1.66,0,4.49-.28,4.49-2.09a22.75,22.75,0,0,0-1.46-5.2l-2.81-8.37h-16.4Z" transform="translate(-79.42 -59.11)"/><path class="cls-3" d="M393.06,448.65l.16,0Zm-6.13,20h12.64l-6.28-19.35Zm-.86.63L393,448.24h.39v.32l-.08,0,.08,0v-.32h.22l6.86,21.07Zm14.76,21.24c3.58-.12,7.08-.27,10.53-.27s6.5.15,9.64.27V489h-.11c-2.47,0-4.17-1-5.07-3.09s-1.82-4.86-2.67-7.4l-13.29-37.77c-.22-.57-.43-1.22-.62-1.74-.06-.07,0-.07-.11-.07H399a1.57,1.57,0,0,0-.42.1,27.25,27.25,0,0,1-6.43,2.89,59.94,59.94,0,0,1-2.69,9l-11.55,33.15a6.9,6.9,0,0,1-6.58,4.91h-.11v1.51c2.47-.12,5-.27,7.49-.27,2.79,0,5.64.15,8.4.27V489h-.46c-2.36,0-5.64-.3-5.73-2.84,0-1.44.88-3.29,1.59-5.73l.32.09-.32-.1,2.39-7.72h16.84l2.9,8.58a22.28,22.28,0,0,1,1.46,5.3c-.1,2.22-3.15,2.37-4.79,2.42h-.48Zm20.47.64c-3.25-.13-6.5-.29-9.94-.29s-7.14.16-10.83.29l-.33,0v-2.82h1.11c1.68,0,4.16-.38,4.16-1.77a22.76,22.76,0,0,0-1.43-5.1l-2.74-8.17H385.36l-2.24,7.3c-.74,2.46-1.6,4.37-1.6,5.55,0,1.76,2.73,2.19,5.13,2.19h1.1v2.82l-.33,0c-2.88-.13-5.83-.29-8.71-.29-2.59,0-5.2.16-7.79.29l-.33,0v-2.82h.74a6.19,6.19,0,0,0,6-4.47l11.56-33.15a84.21,84.21,0,0,0,2.88-9.16,37,37,0,0,0,6.55-3.1,1.89,1.89,0,0,1,.7-.17.87.87,0,0,1,.8.43c.2.59.43,1.23.65,1.81l13.3,37.78c.85,2.53,1.71,5.2,2.66,7.34.83,1.93,2.16,2.68,4.48,2.69h.74v2.82Z" transform="translate(-79.42 -59.11)"/><path class="cls-3" d="M424.5,444.08c-5.42,0-5.64,1.3-6.72,6.57h-2.17c.28-2,.65-4,.87-6.14a42.94,42.94,0,0,0,.43-6.13h1.73c.58,2.17,2.39,2.09,4.34,2.09h37.27c1.94,0,3.75-.07,3.89-2.24l1.74.29c-.28,2-.57,3.9-.79,5.85s-.16,3.9-.16,5.85l-2.16.8c-.13-2.67-.49-6.94-5.34-6.94H445.59v38.43c0,5.57,2.53,6.2,6,6.2H453v2.18c-2.81,0-7.86-.29-11.77-.29-4.33,0-9.39.29-12.21.29v-2.18h1.37c4,0,6-.36,6-6V444.08Z" transform="translate(-79.42 -59.11)"/><path class="cls-3" d="M453,491.19c-2.83,0-7.89-.28-11.77-.28-4.32,0-9.38.28-12.21.28h-.32V488.4h1.69c4-.09,5.58-.14,5.68-5.74V444.39H424.5v-.63h12.15v38.9c0,5.79-2.35,6.36-6.31,6.37h-1.06v1.55c2.86,0,7.71-.29,11.9-.29,3.77,0,8.6.26,11.46.29V489h-1.06c-3.47,0-6.29-.84-6.3-6.52V443.76h12.16c4.85,0,5.49,4.13,5.63,6.82l1.57-.58c0-1.88,0-3.77.15-5.67s.47-3.7.73-5.54l-1.09-.19c-.33,2.09-2.37,2.21-4.17,2.18H422.61c-1.7,0-3.55-.08-4.2-2.1h-1.18a42.13,42.13,0,0,1-.45,5.87c-.19,2-.54,3.9-.81,5.8h1.55c1-5,1.58-6.67,7-6.59v.63c-5.36.09-5.24,1-6.42,6.34L418,451h-2.79l0-.36c.31-2,.66-4.06.88-6.14a42.49,42.49,0,0,0,.43-6.09v-.32h2.28l.07.23c.5,1.82,1.82,1.83,3.67,1.86h37.64c2,0,3.46-.07,3.58-2l0-.35.34.07,2.05.32-.06.32c-.29,1.93-.57,3.88-.78,5.82s-.15,3.88-.15,5.83v.22l-.21.08-2.56.93V451c-.19-2.71-.47-6.64-5-6.64H445.9v38.12c.07,5.44,2.23,5.82,5.67,5.89h1.69v2.79Z" transform="translate(-79.42 -59.11)"/><path class="cls-3" d="M468.54,488.71h1c2.61,0,5.34-.36,5.34-4.11V446.76c0-3.77-2.73-4.12-5.34-4.12h-1v-2.17c2.82,0,7.15.28,10.68.28s8-.28,11.36-.28v2.17h-1c-2.61,0-5.36.35-5.36,4.12V484.6c0,3.75,2.75,4.11,5.36,4.11h1v2.18c-3.47,0-7.81-.29-11.42-.29s-7.8.29-10.62.29Z" transform="translate(-79.42 -59.11)"/><path class="cls-3" d="M490.25,490.56V489h-.68c-2.59,0-5.66-.44-5.66-4.43V446.76c0-4,3.07-4.44,5.66-4.44h.68v-1.54c-3.33,0-7.51.29-11,.29s-7.56-.27-10.36-.29v1.54h.69c2.57,0,5.65.45,5.66,4.44V484.6c0,4-3.09,4.43-5.66,4.43h-.69v1.53c2.78,0,6.87-.27,10.3-.27s7.68.26,11.09.27m.33.63c-3.5,0-7.82-.29-11.42-.29s-7.79.29-10.62.29h-.31V488.4h1.32c2.61,0,5-.27,5-3.8V446.76c0-3.53-2.41-3.77-5-3.81h-1.32v-2.79h.31c2.83,0,7.16.28,10.68.28s7.94-.28,11.36-.28h.3V443h-1.31c-2.65,0-5,.28-5.05,3.81V484.6c0,3.53,2.4,3.76,5.05,3.8h1.31v2.79Z" transform="translate(-79.42 -59.11)"/><path class="cls-3" d="M520.47,488.79c14,0,16.46-12.36,16.46-22.89s-5.7-23.34-17.69-23.34c-12.64,0-16.39,11.27-16.39,20.94,0,12.93,5.92,25.29,17.62,25.29m-1.09-49.4c15.4,0,27.67,9.54,27.67,24.92,0,16.61-11.92,27.66-27.3,27.66s-27-10.4-27-25.93a26.27,26.27,0,0,1,26.65-26.65" transform="translate(-79.42 -59.11)"/><path class="cls-3" d="M502.53,463.5c0-9.72,3.82-21.26,16.71-21.26,12.26,0,18,13,18,23.66s-2.5,23.19-16.78,23.19v-.62c13.74,0,16.12-12,16.15-22.57s-5.64-23-17.38-23c-12.39,0-16.06,11-16.08,20.62,0,12.87,5.87,24.95,17.31,25v.62c-12,0-17.92-12.59-17.94-25.59M492.41,466a26.64,26.64,0,0,1,27-27v.63A26,26,0,0,0,493,466c0,15.35,11.55,25.6,26.72,25.61s27-10.9,27-27.35c0-15.19-12.1-24.58-27.37-24.6v-.63c15.51,0,28,9.66,28,25.23,0,16.79-12.08,27.95-27.61,28s-27.3-10.54-27.34-26.24" transform="translate(-79.42 -59.11)"/><path class="cls-3" d="M595.72,476.65l.15-.14V449.43c0-5.93-4.13-6.79-6.3-6.79H588v-2.17c3.38,0,6.7.28,10.09.28,3,0,5.93-.28,8.9-.28v2.17h-1.1c-3,0-6.43.57-6.43,9.17v32.87a47.3,47.3,0,0,0,.44,7.29h-2.74L560,450.51v29.76c0,6.28,1.22,8.44,6.78,8.44H568v2.18c-3.11,0-6.21-.29-9.32-.29s-6.58.29-9.83.29v-2.18h1c5,0,6.49-3.38,6.49-9.16V449.13a6.47,6.47,0,0,0-6.57-6.49h-.94v-2.17c2.75,0,5.57.28,8.31.28,2.16,0,4.25-.28,6.43-.28Z" transform="translate(-79.42 -59.11)"/><path class="cls-3" d="M595.55,476.51v0l-.06-.06Zm.17.14.23-.21Zm1.45,15h2.37a50.68,50.68,0,0,1-.37-7V451.81c0-8.69,3.64-9.47,6.73-9.49h.79v-1.54c-2.86,0-5.71.29-8.6.29-3.29,0-6.51-.27-9.78-.29v1.54h1.26c2.24,0,6.6,1,6.6,7.11l-.08,27.3-.14.15-.23.23-32.14-36.33c-2.14,0-4.25.29-6.43.29-2.66,0-5.38-.27-8-.29v1.54h.63a6.81,6.81,0,0,1,6.88,6.81v30.42c0,5.78-1.61,9.47-6.8,9.49h-.71v1.53c3.13,0,6.35-.27,9.52-.27,3,0,6,.26,9,.27V489h-.94c-5.67,0-7.09-2.49-7.09-8.77V449.69Zm2.75.63-3-.11-36.65-40.85v28.95c.08,6.28,1,8.05,6.46,8.12h1.56v2.8H568c-3.13,0-6.23-.29-9.32-.29s-6.55.29-9.83.29h-.3v-2.8h1.32c4.76,0,6.13-3.08,6.18-8.84V449.13a6.15,6.15,0,0,0-6.26-6.18h-1.24v-2.79h.3c2.76,0,5.58.28,8.31.28,2.14,0,4.22-.28,6.67-.17L595.55,476V449.43c0-5.74-3.86-6.44-6-6.48h-1.9v-2.79H588c3.4,0,6.73.28,10.09.28,3,0,5.91-.28,8.91-.28h.31V443H605.9c-3,.08-6,.35-6.1,8.86v32.87a47.84,47.84,0,0,0,.4,7.24l.07.36Z" transform="translate(-79.42 -59.11)"/><path class="cls-3" d="M629.16,448.56H629L622.28,469h13.53Zm-10.56,32c-.71,2.45-1.59,4.34-1.59,5.63,0,2.16,3,2.52,5.42,2.52h.8v2.18c-2.89-.15-5.85-.29-8.74-.29-2.61,0-5.2.14-7.79.29v-2.18h.41a6.52,6.52,0,0,0,6.28-4.69L625,450.88a58.61,58.61,0,0,0,2.66-9,37.58,37.58,0,0,0,6.59-3.1,1.42,1.42,0,0,1,.57-.15.48.48,0,0,1,.5.22c.22.58.44,1.23.65,1.8l13.29,37.78c.86,2.53,1.73,5.2,2.68,7.37s2.39,2.88,4.76,2.88h.44v2.18c-3.25-.15-6.5-.29-10-.29s-7.15.14-10.83.29v-2.18h.8c1.65,0,4.48-.28,4.48-2.09a22.75,22.75,0,0,0-1.46-5.2l-2.8-8.37h-16.4Z" transform="translate(-79.42 -59.11)"/><path class="cls-3" d="M628.86,448.65l.14,0Zm-6.14,20h12.64l-6.29-19.34Zm-.86.62,6.92-21.06h.38v.32l-.08,0,.08,0v-.32h.22l6.83,21.06Zm14.75,21.26c3.57-.13,7.09-.28,10.52-.28s6.51.15,9.66.27V489h-.12c-2.44,0-4.15-1-5-3.09s-1.81-4.86-2.67-7.38l-13.3-37.79c-.21-.57-.43-1.22-.61-1.72-.06-.09,0-.09-.1-.09h-.14a1.36,1.36,0,0,0-.41.1,27.71,27.71,0,0,1-6.44,2.89,60.29,60.29,0,0,1-2.69,9l-11.57,33.15a6.86,6.86,0,0,1-6.57,4.91H607v1.51c2.49-.12,5-.27,7.49-.27,2.8,0,5.65.15,8.43.27V489h-.49c-2.35,0-5.64-.29-5.73-2.85,0-1.43.91-3.27,1.61-5.72l.29.09-.29-.1,2.38-7.72h16.84l2.89,8.58a22.28,22.28,0,0,1,1.46,5.3c-.11,2.22-3.14,2.37-4.79,2.42h-.48Zm20.47.63c-3.25-.13-6.5-.29-10-.29s-7.13.16-10.82.29l-.32,0V488.4h1.1c1.68,0,4.17-.39,4.17-1.78a22.54,22.54,0,0,0-1.44-5.1l-2.75-8.17H621.13l-2.23,7.3c-.72,2.47-1.58,4.37-1.57,5.54,0,1.77,2.71,2.21,5.1,2.21h1.1v2.81l-.32,0c-2.89-.13-5.85-.29-8.72-.29-2.59,0-5.19.16-7.79.29l-.32,0V488.4h.73a6.25,6.25,0,0,0,6-4.48l11.56-33.15a94.62,94.62,0,0,0,2.86-9.15,39.19,39.19,0,0,0,6.58-3.11,1.7,1.7,0,0,1,.68-.16.81.81,0,0,1,.79.43c.21.57.43,1.22.66,1.8l13.29,37.78c.86,2.53,1.73,5.2,2.66,7.35.85,1.92,2.17,2.67,4.47,2.69h.75v2.81Z" transform="translate(-79.42 -59.11)"/><path class="cls-3" d="M675.31,483.8c0,2.9,2,3.76,4.32,4.06a52,52,0,0,0,9.54-.15,10.29,10.29,0,0,0,6.93-3.91,16.49,16.49,0,0,0,2.24-5.2h2.1c-.8,4.12-1.81,8.18-2.68,12.29-6.34,0-12.72-.29-19.06-.29s-12.71.29-19.07.29v-2.18h1c2.61,0,5.44-.36,5.44-4.84V446.76c0-3.77-2.83-4.12-5.44-4.12h-1v-2.17c3.82,0,7.58.28,11.4.28s7.3-.28,11-.28v2.17H680.2c-2.73,0-4.89.08-4.89,3.89Z" transform="translate(-79.42 -59.11)"/><path class="cls-3" d="M697.5,490.56c.83-3.91,1.78-7.74,2.55-11.65h-1.48a16.69,16.69,0,0,1-2.22,5.09,10.68,10.68,0,0,1-7.16,4c-1.89.19-3.76.3-5.54.3-1.4,0-2.76-.07-4.06-.16-2.35-.26-4.63-1.27-4.62-4.36V446.53c0-4,2.54-4.21,5.23-4.21h1.5v-1.54c-3.56,0-7.07.29-10.67.29s-7.4-.27-11.1-.29v1.54h.69c2.58,0,5.74.45,5.74,4.43v37.13c0,4.67-3.14,5.15-5.74,5.15h-.69v1.53c6.25,0,12.49-.27,18.77-.27s12.54.27,18.8.27m.26.63c-6.37,0-12.73-.28-19.06-.28s-12.71.28-19.09.28h-.3V488.4h1.31c2.62-.06,5.09-.24,5.12-4.52V446.75c0-3.52-2.49-3.76-5.12-3.8h-1.31v-2.79h.3c3.85,0,7.61.28,11.42.28s7.28-.28,11-.28h.29V443H680.2c-2.79.07-4.54-.05-4.59,3.58V483.8c0,2.7,1.78,3.42,4,3.74,1.27.09,2.61.14,4,.14a51.27,51.27,0,0,0,5.47-.28,10.06,10.06,0,0,0,6.72-3.78,16.32,16.32,0,0,0,2.19-5.09l.06-.24h2.72l-.06.38c-.82,4.13-1.81,8.17-2.69,12.28l-.06.24Z" transform="translate(-79.42 -59.11)"/><path class="cls-3" d="M698.33,446h.9c1,0,1.44-.74,1.44-1.93s-.71-1.64-1.49-1.64h-.85Zm-2.56,4v-.38c.93-.13,1.1-.1,1.1-.68v-5.63c0-.79-.08-1.06-1.07-1V442h3.89c1.35,0,2.57.64,2.57,2a2.39,2.39,0,0,1-1.79,2.3l1.25,1.74a8,8,0,0,0,1.67,1.79v.25h-1.48c-.71,0-1.34-1.5-2.73-3.51h-.85v2.53c0,.5.18.47,1.12.6v.38Zm3.78,2.15a6.19,6.19,0,1,0-6-6.17,6.13,6.13,0,0,0,6,6.17m0-13.79a7.61,7.61,0,1,1-7.61,7.62,7.47,7.47,0,0,1,7.61-7.62" transform="translate(-79.42 -59.11)"/><path class="cls-4" d="M-9.58-137.58" transform="translate(-79.42 -59.11)"/><path class="cls-4" d="M-9.58,1086.42" transform="translate(-79.42 -59.11)"/><path class="cls-4" d="M782.42,1086.42" transform="translate(-79.42 -59.11)"/><path class="cls-4" d="M782.42-137.58" transform="translate(-79.42 -59.11)"/></svg>