<svg id="レイヤー_1" data-name="レイヤー 1" xmlns="http://www.w3.org/2000/svg" viewBox="0 0 126.1 163.57"><defs><style>.cls-1,.cls-3,.cls-4{fill:#ccc;}.cls-2{fill:#fff;}.cls-3{stroke:#fff;stroke-miterlimit:10;stroke-width:3px;}.cls-4{font-size:39.86px;font-family:KozGoPr6N-Regular-83pv-RKSJ-H, Kozuka Gothic Pr6N;}</style></defs><title>freemarket_sample_logo</title><path class="cls-1" d="M44,57.46,89.74,31a6.61,6.61,0,0,1,6.58,0l45.75,26.42a6.57,6.57,0,0,1,3.29,5.7V116a6.58,6.58,0,0,1-3.29,5.7L96.32,148.1a6.56,6.56,0,0,1-6.58,0L44,121.69A6.58,6.58,0,0,1,40.7,116V63.16A6.57,6.57,0,0,1,44,57.46Z" transform="translate(-34.71 -30.16)"/><path class="cls-2" d="M74.78,126.56c6.14,3.54,11.13.66,11.13-6.43V102.42l-6-3.47v17.71c0,3.26-2.29,4.58-5.11,3a11.3,11.3,0,0,1-5.11-8.85V93.05l-6-3.48v17.71C63.65,114.37,68.64,123,74.78,126.56Z" transform="translate(-34.71 -30.16)"/><path class="cls-2" d="M58.54,117.53c6.13,3.54,11.13.66,11.13-6.43V93.39l-6-3.47v17.71c0,3.26-2.29,4.58-5.11,3a11.3,11.3,0,0,1-5.11-8.85V84l-6-3.48V98.25C47.41,105.34,52.4,114,58.54,117.53Z" transform="translate(-34.71 -30.16)"/><path class="cls-1" d="M34.71,159.58v12.56c0,5,2.69,9,6,9a5.4,5.4,0,0,0,4.41-2.91l.4-.65.43.63a5.22,5.22,0,0,0,4.26,2.68c3.31,0,6-4,6-9V159.32H53.71v12.57c0,2.7-1.57,4.9-3.49,4.9s-3.49-2.2-3.49-4.9V159.32H44.21v12.82c0,2.71-1.57,4.9-3.49,4.9s-3.5-2.19-3.5-4.9V159.58Z" transform="translate(-34.71 -30.16)"/><circle class="cls-3" cx="100.81" cy="33.17" r="23.79"/><text class="cls-4" transform="translate(25.75 150.06)">ercari</text></svg>