<?xml version="1.0" encoding="utf-8"?>
<!-- Generator: Adobe Illustrator 19.2.1, SVG Export Plug-In . SVG Version: 6.00 Build 0)  -->
<svg version="1.1" id="レイヤー_1" xmlns="http://www.w3.org/2000/svg" xmlns:xlink="http://www.w3.org/1999/xlink" x="0px"
	 y="0px" viewBox="0 0 4598.5 3000" style="enable-background:new 0 0 4598.5 3000;" xml:space="preserve">
<style type="text/css">
	.st0{fill:#004098;}
	.st1{fill:#FFFFFF;}
	.st2{fill:#009944;}
</style>
<g>
	<rect x="0.8" y="0.5" class="st0" width="4597" height="2282.4"/>
	<polygon class="st0" points="4389.3,2934 4389.3,2436.5 4324.4,2436.5 4324.4,2988.2 4595.6,2988.2 4595.6,2934 	"/>
	<path class="st0" d="M2240.5,2763.4l76.2-256.5l73.8,256.5H2240.5z M2274,2434.5l-162.1,552.2h63.2l50.3-172.1h179.9l49.6,172.1
		h65.3l-158.7-552.2H2274z"/>
	<rect x="1.7" y="2434.5" class="st0" width="63.1" height="553.7"/>
	<polygon class="st0" points="436,2850.8 208.8,2434 145.7,2434 145.7,2987.6 208.8,2987.6 208.8,2559 436,2987.6 498.9,2987.6 
		498.9,2434 436,2434 	"/>
	<polygon class="st0" points="545.9,2490.4 677.4,2490.4 677.4,2986.7 740.6,2986.7 740.6,2490.4 870.2,2490.4 870.2,2433.3 
		545.9,2433.3 	"/>
	<polygon class="st0" points="922.6,2988.3 1212.6,2988.3 1212.6,2930.8 985.4,2930.8 985.4,2722.9 1207.8,2722.9 1207.8,2671.2 
		985.4,2671.2 985.4,2491.7 1212.6,2491.7 1212.6,2434.6 922.6,2434.6 	"/>
	<path class="st0" d="M3183.8,2940.9c-82.9,0-137.6-71.2-137.6-232.9c0-136.7,47.3-232.6,137.6-232.6c95.4,0,140.1,99,140.1,232.6
		C3323.9,2855.3,3266.9,2940.9,3183.8,2940.9 M3183.1,2420c-124.7,0-202.6,112-202.6,289.7c0,201.9,81.4,289.8,202.6,289.8
		c121,0,206.7-118.6,206.7-289.8C3389.8,2549.5,3323.1,2420,3183.1,2420"/>
	<path class="st0" d="M1627.4,2599.5c0-152.4-133-165.8-152.4-165.8h-183.2V2987h61.7v-495.6h121.4c15.4-1.9,90.7,11.4,90.7,108.1
		c0,128.1-140.9,114.7-165.9,114.7l175.4,272.8h69.5l-148.5-225.9C1508.7,2748.6,1627.4,2741.1,1627.4,2599.5"/>
	<polygon class="st0" points="1998.3,2850.8 1771,2434 1708.2,2434 1708.2,2987.6 1771,2987.6 1771,2559 1998.3,2987.6 
		2061.2,2987.6 2061.2,2434 1998.3,2434 	"/>
	<polygon class="st0" points="2462.4,2490.4 2594.2,2490.4 2594.2,2986.7 2657.1,2986.7 2657.1,2490.4 2786.9,2490.4 2786.9,2433.3 
		2462.4,2433.3 	"/>
	<rect x="2845.9" y="2434.5" class="st0" width="63.2" height="553.7"/>
	<polygon class="st0" points="3741.9,2850.8 3514.8,2434 3451.8,2434 3451.8,2987.6 3514.8,2987.6 3514.8,2559 3741.9,2987.6 
		3804.9,2987.6 3804.9,2434 3741.9,2434 	"/>
	<path class="st0" d="M3987.9,2763.4l76.1-256.5l73.9,256.5H3987.9z M4021.3,2434.5l-162.2,552.2h63l50.6-172.1h179.9l49.6,172.1
		h65.3l-158.8-552.2H4021.3z"/>
	<polygon class="st1" points="4268.7,191.7 4268.7,800.4 4268.3,799.1 3767.3,181 3767.3,980.3 3834.5,980.3 3834.5,370.1 
		4335.7,989.3 4335.7,191.7 	"/>
	<path class="st1" d="M3156,929.4c-189.2,0-342.6-153.5-342.6-342.9c0-188.9,153.4-342.6,342.6-342.6
		c189.1,0,342.7,153.7,342.7,342.6C3498.7,775.9,3345,929.4,3156,929.4 M3156,176.7c-226.2,0-409.7,183.6-409.7,409.7
		c0,226.3,183.5,409.8,409.7,409.8c226.1,0,409.6-183.5,409.6-409.8C3565.5,360.4,3382.1,176.7,3156,176.7"/>
	<path class="st1" d="M3156,677.6c-50.3,0-91-40.8-91-91.1c0-50.2,40.8-90.9,91-90.9c50.2,0,91,40.7,91,90.9
		C3246.9,636.8,3206.2,677.6,3156,677.6 M3156,428.7c-87.5,0-158,70.5-158,157.8c0,87.5,70.5,158.1,158,158.1
		c87.1,0,157.9-70.7,157.9-158.1C3313.9,499.2,3243,428.7,3156,428.7"/>
	<path class="st1" d="M610.7,574.5c-52.2-15.7-111.9-30.4-158-45.1c-53.4-19.5-92.1-70-92.1-129.9c0-29.2,9.2-56,24.8-78.1
		c36-58,117.7-86.4,181.6-63.5c43.7,16.4,79.7,50.5,101.4,88.8l56-24.2c-22.1-60.8-71.7-108.6-133.8-129
		c-51.3-19.7-115.4-17.5-165.1,6.6c-80.7,31.6-136,111.5-136,199.9c0,77.9,46,147.1,112.3,182.2c48.2,21.4,104.7,35.8,151,45.9
		c71.6,11.8,133.4,65.7,133.4,139.9v2.2c-1,110-123.6,175-224.2,156.9c-72-15.3-130.6-66.5-156.5-134l-61.4,24
		c28.7,83.5,97.6,148.2,183.9,171c85.3,22.7,182.5,2.3,247.5-54.2c48.1-38.1,79-96.7,79-163C754.4,682.9,691.5,602.9,610.7,574.5"/>
	<path class="st1" d="M2422.8,574.5c-52.1-15.7-111.7-30.4-157.6-45.1c-53.6-19.5-92.2-70-92.2-129.9c0-29.2,9.1-56,24.9-78.1
		c36.1-58,117.5-86.4,181.4-63.5c43.6,16.4,79.9,50.5,101.2,88.8l56.3-24.2c-22.4-60.8-71.9-108.6-133.7-129
		c-51.4-19.7-115.4-17.5-165.5,6.6c-80.4,31.6-135.7,111.5-135.7,199.9c0,77.9,45.8,147.1,112.2,182.2
		c48.2,21.4,104.7,35.8,151,45.9c71.4,11.8,133.4,65.7,133.4,139.9v2.2c-1,110-123.8,175-224.2,156.9c-72-15.3-130.6-66.5-156.5-134
		l-61.5,24c28.8,83.5,97.7,148.2,183.7,171c85.4,22.7,182.8,2.3,247.6-54.2c47.9-38.1,79.1-96.7,79.1-163
		C2566.8,682.9,2503.8,602.9,2422.8,574.5"/>
	<rect x="1727.1" y="192.9" class="st1" width="67.1" height="784.6"/>
	<path class="st1" d="M1079.8,645.9L1207.4,330l127.5,315.9H1079.8z M1207.3,151.1L873.1,978.7h72.1l107.3-265.8h309.5l107.3,265.5
		l-0.2,0.2h72.3v-0.2L1207.3,151.1z"/>
	<rect x="67.9" y="1173.7" class="st2" width="4462.7" height="1042.3"/>
	<path class="st1" d="M2662.4,1693.4h-159.2v-334.6h159.2l0.3-0.3c92.5,0,167.4,74.8,167.4,167.3c0,92.5-74.9,167.7-167.4,167.7
		H2662.4z M2707.9,1756.3c107.6-21,189.1-116.1,189.1-230.1c0-129.5-104.8-234.2-234.2-234.2h-0.6l-225.9-0.2v796.7h67v-327.8h128.2
		l204.1,327.8h79l-207.3-332.6L2707.9,1756.3z"/>
	<path class="st1" d="M3395.6,2022.3l-165,0.2v-651.9h165c172.8,7.6,311,150.4,311,325.8C3706.6,1871.4,3568.4,2014.5,3395.6,2022.3
		 M3395.6,1303.6l-231.7-0.9v0.7l-0.2,785.9h0.2h231.7c210.1-7.7,377.9-181.2,377.9-392.9
		C3773.5,1484.1,3605.7,1311.5,3395.6,1303.6"/>
	<path class="st1" d="M1804.2,1755.6l127.4-315.9l127.9,315.9H1804.2z M1931.7,1260.7l-334.1,827.7h72.2l107.3-265.9h309.3
		l107.3,265.7l-0.1,0.2h72.4l-0.2-0.2L1931.7,1260.7z"/>
	<path class="st1" d="M825.1,1696.1c0,225.9,183.4,409.1,409.4,409.1c81.1,0,156.7-23.6,220.3-64l0.2-83.2
		c-59.5,50-136.5,80.3-220.5,80.3c-189,0-342.4-153.3-342.4-342.2c0-189.2,153.4-342.7,342.4-342.7c84.3,0,161.1,30.6,221,80.6
		v-82.8c-63.7-40.9-139.6-64.6-221-64.6C1008.5,1286.6,825.1,1469.9,825.1,1696.1"/>
</g>
</svg>
